<svg xmlns="http://www.w3.org/2000/svg" viewBox="0 0 650 620">
  <defs>
    <style>
      .stroke{fill:none;stroke:#0b0b0b;stroke-width:14;stroke-linecap:round;stroke-linejoin:round}
      .fill{fill:#0b0b0b}
    </style>
  </defs>

  <!-- Mark (house + table) -->
  <g transform="translate(25,10)">
    <!-- roof -->
    <path class="stroke" d="M70 260 L300 70 L530 260" />
    <!-- chimney -->
    <path class="stroke" d="M440 120 L440 40 L510 40 L510 170" />
    <!-- walls -->
    <path class="stroke" d="M140 250 L110 520" />
    <path class="stroke" d="M490 250 L520 520" />
    <!-- eaves -->
    <path class="stroke" d="M70 260 L0 320" />
    <path class="stroke" d="M530 260 L600 320" />

    <!-- window -->
    <rect class="fill" x="290" y="240" width="45" height="45" rx="2" />
    <rect class="fill" x="345" y="240" width="45" height="45" rx="2" />
    <rect class="fill" x="290" y="295" width="45" height="45" rx="2" />
    <rect class="fill" x="345" y="295" width="45" height="45" rx="2" />

    <!-- table -->
    <path class="stroke" d="M210 410 H390" />
    <path class="stroke" d="M300 410 V560" />
    <path class="stroke" d="M250 560 H350" />

    <!-- left chair -->
    <path class="stroke" d="M110 440 H220" />
    <path class="stroke" d="M120 440 V560" />
    <path class="stroke" d="M210 440 V560" />
    <path class="stroke" d="M120 500 L210 560" />

    <!-- right chair -->
    <path class="stroke" d="M380 440 H490" />
    <path class="stroke" d="M390 440 V560" />
    <path class="stroke" d="M480 440 V560" />
    <path class="stroke" d="M390 560 L480 500" />
  </g>
</svg>
